<svg width="18" height="18" viewBox="0 0 18 18" fill="none" xmlns="http://www.w3.org/2000/svg">
<path opacity="0.5" d="M10.7284 9L17.642 15.9136C18.1193 16.3909 18.1193 17.1647 17.642 17.642C17.1647 18.1193 16.3909 18.1193 15.9136 17.642L9 10.7284L2.08637 17.642C1.60909 18.1193 0.835251 18.1193 0.357965 17.642C-0.119322 17.1647 -0.119322 16.3909 0.357965 15.9136L7.27159 9L0.357965 2.08637C-0.119322 1.60909 -0.119322 0.835251 0.357965 0.357965C0.835251 -0.119322 1.60909 -0.119322 2.08637 0.357965L9 7.27159L15.9136 0.357965C16.3909 -0.119322 17.1647 -0.119322 17.642 0.357965C18.1193 0.835251 18.1193 1.60909 17.642 2.08637L10.7284 9Z" fill="#242E4C"/>
</svg>
